<?xml version="1.0" encoding="UTF-8"?>
<svg width="152px" height="56px" viewBox="0 0 152 56" version="1.1" xmlns="http://www.w3.org/2000/svg" xmlns:xlink="http://www.w3.org/1999/xlink">
    <!-- Generator: Sketch 52.6 (67491) - http://www.bohemiancoding.com/sketch -->
    <title>Group</title>
    <desc>Created with Sketch.</desc>
    <g id="Page-1" stroke="none" stroke-width="1" fill="#fff" fill-rule="evenodd">
        <g id="Group" transform="translate(-1.000000, -1.000000)">
            <g id="logo-symbol" transform="translate(23.500000, 29.400000) scale(-1, 1) translate(-23.500000, -29.400000) translate(0.000000, 0.900000)">
                <g id="Group_16" transform="translate(0.500000, 0.300000)">
                    <path d="M0.722413793,48.2106667 L0.722413793,34.7054359 C0.722413793,33.505137 1.66608947,32.5321026 2.83017241,32.5321026 C3.99425536,32.5321026 4.93793103,33.505137 4.93793103,34.7054359 L4.93793103,48.2106667 C4.93793103,49.8618753 6.23611228,51.2004444 7.8375,51.2004444 C9.43888772,51.2004444 10.737069,49.8618753 10.737069,48.2106667 L10.737069,7.91111111 C10.737069,3.85881381 13.9229875,0.573777778 17.8530172,0.573777778 C21.783047,0.573777778 24.9689655,3.85881381 24.9689655,7.91111111 C24.945751,9.09501361 24.0083298,10.0422537 22.8599138,10.0422537 C21.7114978,10.0422537 20.7740766,9.09501361 20.7508621,7.91111111 C20.7508621,6.26063882 19.4532598,4.92266667 17.8525862,4.92266667 C16.2519126,4.92266667 14.9543103,6.26063882 14.9543103,7.91111111 L14.9543103,48.2097778 C14.9505102,52.2609843 11.7669018,55.5444336 7.83793103,55.5493333 C3.90923955,55.5449226 0.725739657,52.2615851 0.722413793,48.2106667 Z" id="Path_15"></path>
                </g>
                <g id="Group_17" transform="translate(21.500000, 10.300000)">
                    <path d="M7.17758621,35.1972 C3.24942712,35.1927368 0.0659579117,31.8695975 0.0612068966,27.7686 L0.0612068966,3.69 C0.0844214348,2.49129872 1.02184266,1.53221817 2.17025862,1.53221817 C3.31867459,1.53221817 4.25609581,2.49129872 4.27931034,3.69 L4.27931034,27.7731 C4.27931034,29.4447003 5.57729861,30.7998 7.17844828,30.7998 C8.77959794,30.7998 10.0775862,29.4447003 10.0775862,27.7731 L10.0775862,7.9569 C10.0775862,3.85394898 13.2635048,0.52785 17.1935345,0.52785 C21.1235642,0.52785 24.3094828,3.85394898 24.3094828,7.9569 C24.3094828,9.17245112 23.3656141,10.15785 22.2012931,10.15785 C21.0369721,10.15785 20.0931034,9.17245112 20.0931034,7.9569 C20.0931034,6.28505122 18.7949222,4.92975 17.1935345,4.92975 C15.5921468,4.92975 14.2939655,6.28505122 14.2939655,7.9569 L14.2939655,27.7686 C14.2892145,31.8695975 11.1057453,35.1927368 7.17758621,35.1972 Z" id="Path_16"></path>
                </g>
            </g>
            <path d="M96.4117551,28.56 C96.9664245,28.56 97.4250866,28.7413315 97.7877551,29.104 C98.1504236,29.4666685 98.3317551,29.9359971 98.3317551,30.512 L98.3317551,44.048 C98.3317551,44.6026694 98.1504236,45.0666648 97.7877551,45.44 C97.4250866,45.8133352 96.9664245,46 96.4117551,46 C95.8570857,46 95.4037569,45.8186685 95.0517551,45.456 C94.6997533,45.0933315 94.5130885,44.6346694 94.4917551,44.08 C93.9584191,44.6986698 93.2384263,45.2266645 92.3317551,45.664 C91.4250839,46.1013355 90.4704268,46.32 89.4677551,46.32 C87.9957477,46.32 86.6624277,45.9413371 85.4677551,45.184 C84.2730825,44.4266629 83.3290919,43.3760067 82.6357551,42.032 C81.9424183,40.6879933 81.5957551,39.1626752 81.5957551,37.456 C81.5957551,35.7493248 81.937085,34.2186734 82.6197551,32.864 C83.3024252,31.5093266 84.2357492,30.4533371 85.4197551,29.696 C86.603761,28.9386629 87.9104146,28.56 89.3397551,28.56 C90.3637602,28.56 91.3237506,28.7466648 92.2197551,29.12 C93.1157596,29.4933352 93.8730853,29.9679971 94.4917551,30.544 L94.4917551,30.512 C94.4917551,29.9573306 94.6730866,29.4933352 95.0357551,29.12 C95.3984236,28.7466648 95.8570857,28.56 96.4117551,28.56 Z M89.9477551,42.8 C91.3344287,42.8 92.4650841,42.2933384 93.3397551,41.28 C94.2144261,40.2666616 94.6517551,38.9920077 94.6517551,37.456 C94.6517551,35.9199923 94.2144261,34.6400051 93.3397551,33.616 C92.4650841,32.5919949 91.3344287,32.08 89.9477551,32.08 C88.5824149,32.08 87.4624261,32.5919949 86.5877551,33.616 C85.7130841,34.6400051 85.2757551,35.9199923 85.2757551,37.456 C85.2757551,38.9920077 85.7077508,40.2666616 86.5717551,41.28 C87.4357594,42.2933384 88.5610815,42.8 89.9477551,42.8 Z M115.84751,28.912 C116.359513,28.912 116.786175,29.0773317 117.12751,29.408 C117.468845,29.7386683 117.63951,30.1493309 117.63951,30.64 C117.63951,30.8960013 117.554178,31.2159981 117.38351,31.6 L111.39951,44.784 C111.250176,45.1466685 111.031512,45.4346656 110.74351,45.648 C110.455509,45.8613344 110.130179,45.9786666 109.76751,46 L109.47951,46.032 C109.116842,46.032 108.780845,45.9200011 108.47151,45.696 C108.162175,45.4719989 107.922178,45.1680019 107.75151,44.784 L101.79951,31.6 C101.650176,31.258665 101.57551,30.917335 101.57551,30.576 C101.57551,30.1493312 101.756842,29.7600018 102.11951,29.408 C102.482179,29.0559982 102.930174,28.88 103.46351,28.88 C103.868846,28.88 104.242175,28.9866656 104.58351,29.2 C104.924845,29.4133344 105.180843,29.7119981 105.35151,30.096 L109.76751,40.208 L114.15151,30.128 C114.322178,29.7226646 114.556842,29.4133344 114.85551,29.2 C115.154178,28.9866656 115.484842,28.8906666 115.84751,28.912 Z M136.467265,37.04 C136.445932,37.5520026 136.243267,37.9679984 135.859265,38.288 C135.475263,38.6080016 135.027268,38.768 134.515265,38.768 L123.955265,38.768 C124.211267,40.026673 124.797927,41.0133298 125.715265,41.728 C126.632603,42.4426702 127.66726,42.8 128.819265,42.8 C129.693936,42.8 130.376596,42.7200008 130.867265,42.56 C131.357934,42.3999992 131.747264,42.2293342 132.035265,42.048 C132.323267,41.8666658 132.520598,41.7440003 132.627265,41.68 C133.011267,41.487999 133.37393,41.392 133.715265,41.392 C134.163268,41.392 134.547264,41.5519984 134.867265,41.872 C135.187267,42.1920016 135.347265,42.5653312 135.347265,42.992 C135.347265,43.5680029 135.048602,44.0906643 134.451265,44.56 C133.853929,45.0506691 133.053937,45.466665 132.051265,45.808 C131.048594,46.149335 130.03527,46.32 129.011265,46.32 C127.219256,46.32 125.656605,45.9466704 124.323265,45.2 C122.989925,44.4533296 121.960602,43.4240066 121.235265,42.112 C120.509928,40.7999934 120.147265,39.3226749 120.147265,37.68 C120.147265,35.8453242 120.531261,34.2346736 121.299265,32.848 C122.067269,31.4613264 123.080592,30.4000037 124.339265,29.664 C125.597938,28.9279963 126.941925,28.56 128.371265,28.56 C129.779272,28.56 131.107259,28.9439962 132.355265,29.712 C133.603272,30.4800038 134.600595,31.5146602 135.347265,32.816 C136.093936,34.1173398 136.467265,35.5253258 136.467265,37.04 Z M128.371265,32.08 C125.896586,32.08 124.435268,33.242655 123.987265,35.568 L132.371265,35.568 L132.371265,35.344 C132.285932,34.4479955 131.848603,33.6800032 131.059265,33.04 C130.269928,32.3999968 129.373937,32.08 128.371265,32.08 Z M139.26302,43.344 C139.071019,43.0879987 138.97502,42.7680019 138.97502,42.384 C138.97502,41.8293306 139.252351,41.3600019 139.80702,40.976 C140.105689,40.783999 140.415019,40.688 140.73502,40.688 C141.183023,40.688 141.609685,40.8906646 142.01502,41.296 C142.655024,41.9573366 143.321684,42.4479984 144.01502,42.768 C144.708357,43.0880016 145.545682,43.248 146.52702,43.248 C148.191029,43.1839997 149.02302,42.5546726 149.02302,41.36 C149.02302,40.7413302 148.740357,40.2720016 148.17502,39.952 C147.609684,39.6319984 146.729693,39.3120016 145.53502,38.992 C144.297681,38.650665 143.289691,38.309335 142.51102,37.968 C141.73235,37.626665 141.060357,37.1093368 140.49502,36.416 C139.929684,35.7226632 139.64702,34.7893392 139.64702,33.616 C139.64702,32.5919949 139.940351,31.7013371 140.52702,30.944 C141.11369,30.1866629 141.881682,29.6000021 142.83102,29.184 C143.780358,28.7679979 144.788348,28.56 145.85502,28.56 C146.943026,28.56 148.031015,28.7626646 149.11902,29.168 C150.207026,29.5733354 151.060351,30.1706627 151.67902,30.96 C151.956355,31.301335 152.09502,31.6853312 152.09502,32.112 C152.09502,32.6026691 151.892356,33.0079984 151.48702,33.328 C151.188352,33.5626678 150.847022,33.68 150.46302,33.68 C149.993685,33.68 149.609689,33.5306682 149.31102,33.232 C148.927018,32.7626643 148.431023,32.3893347 147.82302,32.112 C147.215017,31.8346653 146.527024,31.696 145.75902,31.696 C144.137679,31.696 143.32702,32.2826608 143.32702,33.456 C143.32702,33.9253357 143.476352,34.3039986 143.77502,34.592 C144.073689,34.8800014 144.452351,35.1039992 144.91102,35.264 C145.369689,35.4240008 146.015016,35.6213322 146.84702,35.856 C147.999026,36.1760016 148.959017,36.506665 149.72702,36.848 C150.495024,37.189335 151.145684,37.7119965 151.67902,38.416 C152.212356,39.1200035 152.47902,40.0479942 152.47902,41.2 C152.47902,42.2453386 152.16969,43.1573294 151.55102,43.936 C150.932351,44.7146706 150.137692,45.3066646 149.16702,45.712 C148.196349,46.1173354 147.199026,46.32 146.17502,46.32 C144.767013,46.32 143.455026,46.0853357 142.23902,45.616 C141.023014,45.1466643 140.031024,44.3893386 139.26302,43.344 Z" id="Waves"></path>
            <path d="M42.2113518,35.8310016 C42.2113518,34.129344 42.1782353,32.239443 42.1120022,30.1612987 C42.1120022,26.1773185 45.2082068,22.9476644 49.0275687,22.9476644 C51.9987133,22.9476644 54.5157294,24.9112021 55.5110036,27.6456957 C55.5695197,27.8064671 55.9962315,29.8539045 54.2922411,30.4741063 C52.5882507,31.0943081 51.6973351,29.2042488 51.6266198,29.0279752 C51.2013841,27.96798 50.1976454,27.223236 49.0271498,27.223236 C47.4715505,27.223236 46.210488,28.5386515 46.210488,30.1612987 C46.2767211,32.5608881 46.3098377,34.4135378 46.3098377,35.7192479 C46.3098377,36.0962199 45.7731226,37.5301457 44.2546735,37.5490607 C42.7362244,37.5679757 42.2113518,36.1259003 42.2113518,35.8310016 Z" id="Path_15" transform="translate(48.856385, 30.248455) scale(-1, 1) rotate(20.000000) translate(-48.856385, -30.248455) "></path>
            <path d="M77.584,23.504 C78.0960026,23.504 78.5706645,23.7013314 79.008,24.096 C79.4453355,24.4906686 79.664,24.9866637 79.664,25.584 C79.664,25.776001 79.6320003,25.9893322 79.568,26.224 L73.264,44.784 C73.1359994,45.1466685 72.9120016,45.4346656 72.592,45.648 C72.2719984,45.8613344 71.9200019,45.9786666 71.536,46 C71.1519981,46 70.789335,45.8933344 70.448,45.68 C70.106665,45.4666656 69.840001,45.1573354 69.648,44.752 L65.104,34.416 L60.528,44.752 C60.335999,45.1573354 60.069335,45.4666656 59.728,45.68 C59.386665,45.8933344 59.0240019,46 58.64,46 C58.2559981,45.9786666 57.9040016,45.8613344 57.584,45.648 C57.2639984,45.4346656 57.0400006,45.1466685 56.912,44.784 C56.1213578,42.7756029 55.5659129,41.2587459 55.2456654,40.2334289 C54.7652941,38.6954534 54.3182003,37.2053604 56.1025362,36.5560503 C57.8868722,35.9067402 58.64,37.6245551 59.122279,38.8692443 C59.1516695,38.9450968 59.1935765,39.060682 59.248,39.216 L63.408,29.232 C63.5786675,28.8479981 63.8239984,28.5440011 64.144,28.32 C64.4640016,28.0959989 64.8266646,27.9946666 65.232,28.016 C65.6373354,27.9946666 65.9946651,28.0959989 66.304,28.32 C66.6133349,28.5440011 66.8533325,28.8479981 67.024,29.232 L70.96,39.12 L75.696,24.752 C75.8240006,24.3679981 76.0639982,24.0640011 76.416,23.84 C76.7680018,23.6159989 77.1573312,23.504 77.584,23.504 Z" id="Combined-Shape"></path>
        </g>
    </g>
</svg>