
<?xml version="1.0" encoding="UTF-8"?>
<svg width="58px" height="56px" viewBox="0 0 58 56" version="1.1" xmlns="http://www.w3.org/2000/svg" xmlns:xlink="http://www.w3.org/1999/xlink">
    <!-- Generator: Sketch 52.6 (67491) - http://www.bohemiancoding.com/sketch -->
    <title>Artboard</title>
    <desc>Created with Sketch.</desc>
    <g id="Artboard" stroke="none" stroke-width="1" fill="none" fill-rule="evenodd">
        <g id="logo-symbol" transform="translate(29.500000, 28.500000) scale(-1, 1) translate(-29.500000, -28.500000) ">
            <g id="Group_16" transform="translate(0.500000, 0.300000)" fill="#FFFFFF">
                <g id="Group">
                    <path d="M12.7224138,48.2106667 L12.7224138,34.7054359 C12.7224138,33.505137 13.6660895,32.5321026 14.8301724,32.5321026 C15.9942554,32.5321026 16.937931,33.505137 16.937931,34.7054359 L16.937931,48.2106667 C16.937931,49.8618753 18.2361123,51.2004444 19.8375,51.2004444 C21.4388877,51.2004444 22.737069,49.8618753 22.737069,48.2106667 L22.737069,7.91111111 C22.737069,3.85881381 25.9229875,0.573777778 29.8530172,0.573777778 C33.783047,0.573777778 36.9689655,3.85881381 36.9689655,7.91111111 C36.945751,9.09501361 36.0083298,10.0422537 34.8599138,10.0422537 C33.7114978,10.0422537 32.7740766,9.09501361 32.7508621,7.91111111 C32.7508621,6.26063882 31.4532598,4.92266667 29.8525862,4.92266667 C28.2519126,4.92266667 26.9543103,6.26063882 26.9543103,7.91111111 L26.9543103,48.2097778 C26.9505102,52.2609843 23.7669018,55.5444336 19.837931,55.5493333 C15.9092396,55.5449226 12.7257397,52.2615851 12.7224138,48.2106667 Z" id="Path_15"></path>
                    <path d="M40.1775862,45.1972 C36.2494271,45.1927368 33.0659579,41.8695975 33.0612069,37.7686 L33.0612069,13.69 C33.0844214,12.4912987 34.0218427,11.5322182 35.1702586,11.5322182 C36.3186746,11.5322182 37.2560958,12.4912987 37.2793103,13.69 L37.2793103,37.7731 C37.2793103,39.4447003 38.5772986,40.7998 40.1784483,40.7998 C41.7795979,40.7998 43.0775862,39.4447003 43.0775862,37.7731 L43.0775862,17.9569 C43.0775862,13.853949 46.2635048,10.52785 50.1935345,10.52785 C54.1235642,10.52785 57.3094828,13.853949 57.3094828,17.9569 C57.3094828,19.1724511 56.3656141,20.15785 55.2012931,20.15785 C54.0369721,20.15785 53.0931034,19.1724511 53.0931034,17.9569 C53.0931034,16.2850512 51.7949222,14.92975 50.1935345,14.92975 C48.5921468,14.92975 47.2939655,16.2850512 47.2939655,17.9569 L47.2939655,37.7686 C47.2892145,41.8695975 44.1057453,45.1927368 40.1775862,45.1972 Z" id="Path_16"></path>
                    <path d="M2.99858191,34.6310015 C2.99858191,32.9293439 2.96546541,31.0394429 2.89923231,28.9612986 C2.89923231,24.9773184 5.99543691,21.7476643 9.81479881,21.7476643 C12.7859434,21.7476643 15.3029595,23.711202 16.2982337,26.4456956 C16.3567498,26.606467 16.7834616,28.6539044 15.0794712,29.2741062 C13.3754808,29.894308 12.4845652,28.0042487 12.4138499,27.8279751 C11.9886142,26.7679799 10.9848755,26.0232359 9.81437991,26.0232359 C8.25878061,26.0232359 6.99771811,27.3386514 6.99771811,28.9612986 C7.06395121,31.360888 7.09706781,33.2135377 7.09706781,34.5192478 C7.09706781,34.8962198 6.56035271,36.3301456 5.04190361,36.3490606 C3.52345451,36.3679756 2.99858191,34.9259002 2.99858191,34.6310015 Z" id="Path_15" transform="translate(9.643615, 29.048455) rotate(20.000000) translate(-9.643615, -29.048455) "></path>
                </g>
            </g>
            <g id="Group_17" transform="translate(33.500000, 10.300000)"></g>
        </g>
    </g>
</svg>