<?xml version="1.0" standalone="no"?>
<!DOCTYPE svg PUBLIC "-//W3C//DTD SVG 20010904//EN"
 "http://www.w3.org/TR/2001/REC-SVG-20010904/DTD/svg10.dtd">
<svg version="1.0" xmlns="http://www.w3.org/2000/svg"
 width="2432.000000pt" height="2432.000000pt" viewBox="0 0 2432.000000 2432.000000"
 preserveAspectRatio="xMidYMid meet">
<metadata>
Created by potrace 1.14, written by Peter Selinger 2001-2017
</metadata>
<g transform="translate(0.000000,2432.000000) scale(0.100000,-0.100000)"
fill="#000000" stroke="none">
<path d="M4337 16514 c-1 -1 -27 -4 -57 -8 -30 -3 -70 -10 -88 -15 -18 -5 -35
-10 -37 -10 -3 0 -31 -7 -62 -16 -90 -26 -231 -97 -318 -160 -73 -52 -245
-217 -245 -235 0 -4 -13 -23 -30 -41 -16 -19 -30 -37 -30 -42 0 -4 -12 -26
-26 -48 -34 -54 -94 -195 -87 -203 4 -3 2 -6 -4 -6 -8 0 -32 -78 -34 -112 0
-4 -4 -22 -9 -39 -24 -83 -31 -235 -14 -310 65 -284 431 -361 596 -126 32 47
75 157 61 157 -3 0 -1 6 5 13 7 8 7 18 2 27 -5 8 -6 18 -3 23 3 5 7 28 9 50
13 135 126 294 254 356 35 17 76 34 90 37 47 12 179 13 217 2 133 -36 245
-126 308 -248 51 -99 48 117 50 -3440 1 -1818 5 -3327 9 -3355 20 -147 50
-260 99 -365 23 -49 97 -182 106 -190 4 -3 19 -23 36 -45 44 -61 223 -235 240
-235 3 0 27 -15 53 -33 53 -36 126 -73 237 -117 56 -23 179 -48 275 -56 35 -3
66 -5 69 -6 3 0 8 1 11 2 3 1 34 3 70 5 136 8 237 29 340 72 8 3 17 7 20 7 10
3 125 60 130 66 3 3 21 14 40 24 31 18 96 64 126 91 6 6 29 27 52 47 49 44
162 182 162 197 0 6 5 11 10 11 6 0 10 6 10 14 0 8 3 16 8 18 11 5 99 188 108
223 4 17 9 35 13 40 3 6 6 15 7 20 1 6 9 39 18 75 8 36 18 92 22 125 9 77 9
2329 0 2375 -19 94 -100 199 -186 239 -48 22 -122 38 -155 34 -11 -2 -31 -4
-45 -6 -14 -1 -29 -5 -35 -8 -5 -4 -26 -12 -46 -18 -40 -13 -130 -95 -153
-140 -47 -90 -46 -46 -46 -1236 0 -616 -3 -1138 -5 -1160 -7 -54 -45 -175 -56
-175 -5 0 -9 -7 -9 -15 0 -29 -116 -139 -181 -172 -92 -46 -123 -53 -224 -54
-142 -1 -257 63 -376 209 -11 13 -38 74 -36 82 0 3 -5 15 -12 28 -7 13 -15 33
-18 45 -4 12 -7 1496 -8 3298 -1 1801 -5 3281 -9 3287 -4 7 -2 12 4 12 6 0 9
3 6 8 -2 4 -7 34 -10 67 -7 80 -22 153 -46 235 -7 25 -14 50 -15 55 -2 6 -17
42 -35 80 -18 39 -34 72 -35 75 -4 16 -69 120 -90 144 -14 16 -25 32 -25 36 0
14 -159 168 -225 217 -57 43 -222 136 -245 139 -3 0 -23 8 -44 17 -22 10 -41
15 -44 12 -2 -2 -13 0 -23 6 -17 8 -70 21 -154 35 -29 5 -233 12 -238 8z"/>
<path d="M1115 14922 c-2 -2 -28 -6 -57 -7 -29 -1 -69 -5 -88 -9 -64 -13 -215
-60 -221 -69 -3 -5 -8 -8 -10 -6 -13 7 -193 -94 -227 -128 -7 -7 -17 -13 -22
-13 -8 0 -149 -137 -187 -183 -12 -14 -35 -46 -50 -69 -15 -24 -30 -45 -34
-48 -19 -16 -114 -216 -124 -259 -2 -9 -13 -46 -24 -84 -26 -87 -32 -137 -36
-274 -2 -70 0 -113 6 -113 6 0 7 -5 4 -10 -11 -18 42 -118 87 -163 73 -74 147
-103 253 -99 28 1 58 2 67 3 10 0 20 5 23 10 4 5 11 7 16 4 5 -4 9 -3 9 2 0 4
13 14 29 21 48 21 113 94 141 157 15 33 28 67 28 75 8 123 16 183 32 224 5 15
8 26 6 26 -5 0 39 85 53 103 107 134 205 191 355 203 228 19 456 -175 483
-411 3 -27 7 -797 8 -1710 1 -913 5 -1676 9 -1695 4 -19 8 -48 11 -65 2 -16 8
-45 14 -63 5 -18 11 -36 12 -40 1 -4 3 -11 4 -17 21 -76 86 -223 128 -290 93
-148 234 -293 356 -367 20 -12 39 -27 43 -32 4 -6 8 -8 8 -4 0 4 21 -5 48 -20
120 -71 327 -123 497 -125 50 -1 196 12 205 18 4 3 22 7 41 9 19 3 67 16 107
30 39 14 72 22 72 18 0 -4 4 -2 8 3 4 6 34 24 67 40 180 90 356 251 459 421
66 108 119 230 142 327 1 4 2 8 4 10 3 4 16 63 28 127 12 68 14 4051 2 4107
-16 74 -43 124 -94 176 -141 140 -363 129 -489 -25 -28 -34 -66 -103 -57 -103
1 0 -4 -13 -11 -30 -10 -23 -13 -470 -14 -2025 -2 -1097 -5 -2004 -8 -2015
-26 -97 -88 -211 -141 -258 -84 -73 -178 -115 -277 -122 -34 -2 -64 -6 -66 -9
-3 -2 -19 2 -38 9 -18 8 -35 12 -38 9 -10 -10 -139 56 -186 96 -82 68 -146
180 -166 291 -4 19 -7 777 -7 1685 0 915 -4 1677 -9 1710 -26 170 -40 222 -95
352 -52 122 -139 252 -244 361 -47 49 -184 158 -210 166 -11 3 -20 11 -20 16
0 5 -9 9 -20 9 -11 0 -20 4 -20 8 0 8 -84 46 -86 40 0 -2 -8 3 -16 9 -16 14
-114 46 -193 63 -69 16 -270 31 -280 22z"/>
<path d="M7557 13114 c-1 -1 -33 -4 -72 -8 -62 -6 -210 -37 -222 -46 -3 -3 -9
-5 -43 -16 -30 -9 -183 -85 -190 -93 -3 -4 -18 -15 -35 -25 -33 -21 -131 -102
-155 -127 -207 -224 -314 -481 -325 -774 -4 -113 49 -240 135 -322 76 -72 224
-94 323 -48 63 29 84 47 123 105 45 67 68 135 79 240 10 96 15 114 47 180 29
60 129 180 150 180 4 0 26 11 48 25 22 14 40 23 40 21 0 -2 21 2 47 10 74 22
190 17 263 -13 8 -4 18 -7 21 -7 22 -3 132 -82 155 -112 16 -19 34 -41 40 -48
27 -29 66 -124 132 -321 72 -213 91 -268 100 -295 3 -8 6 -18 7 -22 2 -5 3 -9
5 -10 1 -2 3 -10 5 -18 4 -17 52 -154 65 -185 4 -11 18 -47 31 -80 55 -148
244 -244 391 -200 28 9 89 36 103 47 55 42 112 115 120 156 2 12 7 27 10 32
12 19 14 132 3 159 -21 53 -27 67 -48 131 -12 36 -26 74 -31 85 -10 24 -79
224 -84 245 -2 8 -36 109 -75 224 -62 183 -122 330 -140 346 -4 3 -23 32 -43
65 -95 156 -277 316 -459 404 -48 24 -93 44 -100 45 -7 2 -20 6 -28 9 -21 8
-83 27 -95 29 -5 0 -26 5 -45 10 -38 8 -247 27 -253 22z"/>
<path d="M12217 13043 c-4 -4 -18 -9 -30 -11 -12 -2 -26 -4 -32 -6 -59 -11
-153 -84 -182 -140 -14 -26 -136 -380 -147 -426 -3 -8 -9 -27 -14 -41 -6 -15
-8 -30 -5 -33 4 -3 2 -6 -4 -6 -5 0 -10 -6 -10 -12 0 -11 -143 -451 -173 -533
-6 -16 -12 -34 -14 -40 -5 -23 -18 -61 -26 -80 -11 -25 -51 -152 -54 -168 -1
-7 -7 -25 -13 -42 -22 -58 -26 -70 -29 -80 -8 -32 -87 -272 -92 -280 -4 -5 -7
-16 -8 -22 -3 -17 -185 -567 -190 -572 -4 -4 -4 -5 -94 224 -38 99 -75 188
-80 197 -6 10 -10 23 -10 29 0 6 -7 25 -14 42 -8 18 -47 113 -86 212 -39 99
-75 189 -80 200 -5 11 -71 175 -146 364 -75 189 -143 353 -153 364 -34 45 -93
96 -128 112 -55 27 -174 28 -241 3 -100 -37 -155 -111 -236 -316 -20 -51 -40
-101 -45 -110 -18 -34 -41 -90 -41 -100 0 -6 -11 -31 -24 -56 -14 -25 -27 -59
-31 -76 -4 -16 -11 -30 -17 -30 -6 0 -9 -3 -6 -6 4 -3 -4 -29 -16 -57 -32 -74
-39 -90 -42 -106 -1 -8 -6 -17 -11 -20 -4 -3 -9 -13 -11 -21 -3 -14 -119 -294
-148 -357 -8 -17 -14 -34 -14 -38 0 -3 -10 -30 -23 -58 -26 -57 -65 -151 -77
-182 -4 -11 -17 -41 -29 -66 -12 -25 -23 -52 -25 -60 -4 -22 -40 -99 -46 -99
-3 0 -12 17 -19 38 -7 20 -29 70 -47 111 -110 241 -243 323 -428 265 -31 -10
-56 -21 -56 -26 0 -4 -7 -8 -16 -8 -23 0 -103 -80 -121 -120 -17 -38 -26 -195
-13 -220 4 -8 10 -31 13 -50 8 -52 65 -232 129 -410 34 -94 40 -115 37 -115
-1 0 7 -18 18 -40 12 -22 22 -44 23 -50 2 -5 6 -19 10 -30 5 -11 29 -76 55
-145 57 -150 92 -207 154 -246 25 -16 46 -27 46 -25 0 2 9 -1 21 -7 11 -6 44
-13 74 -17 29 -3 57 -8 62 -11 4 -3 8 0 8 5 0 6 11 11 24 11 33 0 114 45 158
87 29 28 107 161 114 193 1 8 19 50 52 120 16 36 44 99 62 140 18 41 45 103
61 138 16 35 29 65 29 67 0 2 18 43 40 90 22 47 40 88 40 90 0 2 16 38 35 79
19 42 35 78 35 81 0 2 15 37 34 77 19 40 51 111 71 158 20 47 50 112 66 146
16 33 29 64 29 68 0 5 13 36 29 70 15 33 38 84 50 111 58 131 58 131 66 110 9
-25 38 -90 67 -152 13 -27 23 -50 24 -53 2 -9 25 -63 53 -124 63 -137 116
-261 113 -268 -1 -5 2 -8 8 -8 6 0 9 -3 8 -7 -1 -9 8 -32 51 -125 17 -36 31
-69 31 -71 0 -3 16 -40 35 -81 19 -42 35 -78 35 -81 0 -3 13 -32 30 -65 17
-33 30 -62 30 -65 1 -6 36 -90 55 -130 47 -98 85 -189 85 -201 0 -8 5 -14 10
-14 6 0 10 -6 10 -13 0 -7 9 -31 19 -54 11 -22 21 -46 23 -54 2 -8 7 -17 11
-20 5 -3 9 -12 11 -20 11 -64 103 -166 181 -200 68 -29 186 -33 233 -8 17 11
34 18 35 16 4 -2 63 42 78 58 27 29 49 59 49 66 0 4 5 20 11 36 13 31 187 539
194 563 2 8 27 83 55 165 29 83 53 155 55 160 2 10 6 21 21 60 10 26 9 25 19
60 4 17 11 35 15 40 5 6 11 27 15 48 4 20 11 40 16 43 5 3 9 15 9 28 0 12 3
25 6 29 9 8 53 137 48 137 -3 0 1 10 8 23 6 12 13 28 15 35 5 21 10 36 16 52
30 79 45 129 40 134 -4 3 -2 6 3 6 5 0 10 9 11 20 1 10 8 34 17 52 13 31 27
70 32 93 1 6 16 47 32 93 17 45 28 82 25 82 -3 0 -1 6 5 13 5 6 15 32 22 56 6
24 16 55 22 70 6 14 12 31 14 36 1 6 23 71 49 145 26 74 48 142 50 150 2 8 17
51 33 95 16 44 29 83 31 87 4 15 10 34 39 118 106 307 121 370 100 450 -35
135 -168 250 -293 254 -27 0 -53 4 -56 9 -3 4 -9 4 -12 0z"/>
<path d="M13998 12224 c-4 -3 -83 -15 -120 -17 -10 -1 -18 -4 -18 -7 0 -3 -8
-6 -18 -7 -50 -4 -291 -104 -300 -125 -2 -4 -10 -8 -18 -8 -8 0 -14 -4 -14
-10 0 -5 -5 -10 -11 -10 -38 0 -241 -191 -317 -299 -25 -36 -49 -68 -52 -71
-21 -20 -133 -253 -133 -277 0 -7 -5 -13 -10 -13 -6 0 -8 -3 -4 -6 3 -3 -3
-28 -13 -55 -11 -27 -17 -49 -14 -49 4 0 1 -7 -6 -15 -7 -8 -10 -15 -7 -15 3
0 1 -15 -3 -32 -44 -162 -57 -511 -26 -670 5 -24 16 -83 20 -108 6 -33 34
-132 50 -175 4 -11 11 -29 15 -40 22 -61 101 -211 148 -282 49 -74 184 -232
207 -242 5 -2 17 -12 27 -22 29 -29 168 -121 234 -156 82 -42 223 -88 325
-106 82 -14 338 -16 400 -3 55 11 70 15 135 35 141 44 314 144 421 245 32 30
60 53 62 51 2 -1 5 -20 8 -41 5 -43 50 -144 64 -144 5 0 11 -8 14 -18 9 -27
185 -110 200 -95 3 3 24 7 48 8 24 1 56 6 73 10 37 10 95 44 95 56 0 5 6 9 13
9 11 0 67 70 67 83 0 3 5 18 12 34 6 15 13 35 15 43 2 8 5 519 6 1135 3 1294
7 1232 -90 1328 -62 63 -113 82 -218 82 -77 -1 -97 -5 -141 -27 -99 -52 -159
-147 -163 -261 -1 -17 -2 -17 -31 -1 -16 10 -27 20 -25 23 7 6 -204 141 -230
147 -5 1 -37 14 -69 29 -33 15 -65 28 -70 29 -6 1 -15 4 -21 8 -5 3 -28 9 -49
12 -22 4 -45 11 -53 17 -7 6 -13 9 -13 7 0 -3 -32 1 -71 7 -65 11 -322 18
-331 9z m377 -569 c154 -28 292 -110 408 -243 15 -18 27 -35 27 -39 0 -4 8
-16 19 -27 24 -27 81 -133 81 -152 0 -8 4 -14 10 -14 5 0 9 -3 9 -7 -1 -5 0
-10 1 -13 1 -3 3 -12 5 -20 1 -8 8 -35 15 -60 19 -69 21 -81 25 -140 2 -30 5
-57 6 -60 3 -13 0 -153 -5 -207 -10 -99 -44 -213 -92 -310 -25 -51 -50 -93
-55 -93 -5 0 -9 -7 -9 -15 0 -8 -9 -20 -20 -27 -11 -7 -20 -17 -20 -21 0 -12
-78 -88 -120 -117 -19 -13 -37 -27 -40 -30 -19 -24 -181 -85 -260 -98 -89 -15
-321 -1 -328 19 -2 5 -8 7 -13 3 -5 -3 -37 7 -71 22 -91 40 -179 102 -232 163
-12 13 -26 29 -31 35 -94 103 -171 287 -192 461 -24 201 5 406 82 571 53 114
211 304 253 304 6 0 12 4 12 9 0 8 102 64 120 66 3 0 12 4 20 9 52 34 282 51
395 31z"/>
<path d="M20176 12214 c-38 -7 -71 -13 -75 -12 -3 1 -13 -1 -21 -5 -8 -3 -46
-16 -85 -28 -38 -12 -86 -29 -105 -37 -19 -9 -37 -16 -40 -16 -3 -1 -39 -20
-80 -43 -128 -70 -241 -160 -340 -269 -83 -91 -194 -265 -234 -364 -10 -25
-23 -56 -29 -70 -6 -14 -11 -27 -12 -30 -1 -3 -11 -37 -23 -77 -12 -39 -27
-95 -32 -125 -6 -29 -12 -62 -14 -73 -19 -98 -25 -309 -14 -455 5 -65 11 -97
34 -205 2 -11 6 -29 8 -40 7 -37 77 -217 101 -259 12 -22 31 -57 42 -76 20
-37 54 -92 63 -100 3 -3 23 -27 45 -55 64 -81 181 -191 226 -215 13 -7 26 -16
29 -20 8 -11 136 -88 172 -103 18 -8 53 -24 78 -35 79 -37 234 -78 370 -99 84
-12 485 -7 485 7 0 1 9 3 20 4 11 1 38 6 60 11 22 5 42 9 45 9 3 1 11 5 18 9
6 5 12 6 12 3 0 -9 170 53 258 94 45 22 85 39 89 39 3 0 9 3 12 8 3 4 32 26
65 48 223 150 253 357 74 501 -25 20 -92 38 -143 39 -65 1 -150 -27 -222 -74
-66 -42 -150 -82 -208 -100 -22 -7 -47 -15 -55 -18 -8 -3 -24 -7 -35 -9 -11
-1 -33 -5 -50 -9 -41 -9 -318 -14 -330 -5 -5 3 -23 7 -40 8 -78 5 -224 70
-320 142 -109 82 -171 156 -228 272 -37 76 -80 207 -69 209 4 1 396 3 872 4
902 2 897 1 975 44 54 29 103 82 126 134 41 95 22 326 -42 520 -34 101 -101
242 -148 313 -17 25 -31 49 -31 55 0 5 -3 9 -8 9 -4 0 -14 11 -22 24 -34 54
-121 148 -220 235 -44 39 -196 141 -209 141 -6 0 -11 4 -11 9 0 5 -8 11 -17
14 -10 3 -63 24 -117 47 -143 60 -280 87 -446 87 -74 0 -166 -6 -204 -13z
m354 -564 c25 -7 52 -14 61 -15 9 -2 25 -8 35 -13 11 -5 33 -16 49 -23 17 -8
32 -16 35 -19 3 -3 16 -11 30 -18 21 -11 49 -32 105 -80 28 -24 85 -92 85
-102 0 -5 4 -10 9 -10 10 0 55 -100 66 -145 4 -16 9 -49 12 -72 l5 -43 -672 0
-672 0 8 32 c65 298 258 478 549 514 22 3 41 6 42 8 8 8 215 -3 253 -14z"/>
<path d="M23059 12226 c-2 -2 -29 -6 -59 -10 -60 -6 -78 -10 -127 -25 -18 -5
-33 -7 -33 -4 0 3 -6 1 -12 -5 -7 -6 -15 -10 -18 -11 -26 -1 -166 -61 -226
-97 -31 -19 -58 -34 -60 -34 -19 0 -210 -193 -219 -220 -3 -11 -11 -20 -16
-20 -5 0 -9 -7 -9 -15 0 -8 -4 -15 -9 -15 -5 0 -12 -12 -15 -26 -4 -14 -15
-45 -25 -68 -33 -72 -44 -138 -45 -256 0 -182 37 -317 117 -425 72 -97 267
-255 315 -255 7 0 12 -4 12 -10 0 -5 3 -9 8 -8 4 0 16 -2 27 -7 138 -56 280
-103 490 -162 50 -13 99 -28 110 -33 11 -5 33 -11 50 -15 16 -4 49 -15 73 -26
24 -11 53 -21 63 -22 10 -1 19 -4 19 -8 0 -3 17 -13 38 -22 135 -58 194 -167
169 -310 -20 -112 -106 -186 -257 -222 -14 -3 -57 -7 -97 -9 -39 -2 -76 -7
-82 -11 -6 -3 -11 -2 -11 2 0 5 -11 8 -25 8 -22 -1 -76 5 -159 20 -51 8 -160
47 -201 72 -22 13 -48 26 -57 30 -10 3 -18 9 -18 14 0 5 -5 9 -11 9 -6 0 -17
6 -24 13 -8 6 -26 21 -41 32 -15 11 -59 51 -98 88 -40 38 -98 81 -133 99 -55
27 -70 30 -122 25 -91 -7 -156 -48 -230 -143 -16 -21 -31 -74 -34 -124 -5 -63
19 -122 78 -195 58 -72 187 -195 204 -195 4 0 16 -8 27 -18 28 -26 198 -108
272 -132 72 -22 140 -42 161 -46 7 -1 34 -7 60 -13 25 -6 55 -11 66 -11 45 -1
93 -7 102 -13 12 -7 333 -2 388 7 22 4 49 10 60 13 11 4 26 8 34 9 47 9 189
63 261 101 144 76 275 195 348 317 39 63 81 178 90 244 10 76 4 276 -10 322
-30 98 -57 164 -86 208 -36 55 -163 192 -177 192 -5 0 -18 8 -29 19 -18 16
-151 92 -159 90 -1 0 -15 5 -32 11 -111 44 -155 59 -155 54 0 -3 -12 1 -27 9
-32 17 -161 58 -258 81 -40 10 -134 39 -150 47 -11 5 -31 11 -45 13 -14 3 -25
5 -25 6 0 1 -7 3 -16 5 -23 4 -151 67 -173 85 -79 64 -107 115 -111 204 -8
201 132 299 413 289 146 -5 162 -6 162 -15 0 -5 3 -7 8 -6 19 5 85 -18 161
-55 61 -30 107 -63 165 -118 99 -93 133 -112 211 -114 88 -3 144 17 201 72 83
81 101 192 48 300 -30 63 -135 172 -222 231 -125 86 -343 168 -527 197 -48 7
-329 17 -336 11z"/>
<path d="M16303 12166 c-89 -28 -168 -101 -197 -182 -16 -47 -13 -145 7 -199
16 -43 77 -183 123 -280 15 -33 29 -62 29 -65 5 -15 46 -107 129 -282 20 -43
36 -80 36 -83 0 -3 16 -38 36 -78 19 -39 35 -73 35 -74 -1 -5 40 -98 65 -147
13 -28 24 -56 24 -63 0 -7 4 -13 10 -13 5 0 9 -3 8 -7 -2 -10 9 -36 61 -147
23 -49 41 -90 41 -92 0 -3 17 -41 39 -87 21 -45 55 -120 76 -167 20 -47 50
-112 65 -145 63 -135 102 -221 104 -230 4 -13 61 -137 94 -203 59 -118 170
-194 272 -186 116 9 167 29 230 90 36 35 57 70 110 189 18 39 42 93 55 120 51
109 95 207 95 210 0 1 21 47 46 101 25 55 51 113 59 129 12 28 39 87 97 215
14 30 36 78 49 105 12 28 24 52 24 55 1 3 11 25 22 50 42 91 81 176 103 225
12 28 33 73 46 100 46 99 74 166 74 175 0 6 4 10 9 10 5 0 12 11 15 25 4 14
22 58 40 98 19 39 52 112 75 160 22 49 41 91 41 93 0 2 17 41 39 86 84 181 93
266 37 361 -53 91 -139 139 -251 139 -140 1 -231 -77 -296 -252 -7 -19 -16
-39 -19 -45 -4 -5 -26 -55 -50 -110 -23 -55 -53 -125 -67 -155 -14 -30 -33
-75 -43 -100 -10 -25 -32 -76 -50 -115 -17 -38 -35 -79 -40 -90 -5 -11 -19
-42 -31 -70 -13 -27 -23 -52 -24 -55 -1 -10 -60 -145 -65 -150 -3 -3 -6 -12
-8 -20 -2 -8 -14 -36 -28 -62 -13 -27 -22 -48 -19 -48 2 0 -3 -15 -13 -32 -10
-18 -33 -70 -51 -115 -18 -46 -37 -83 -42 -83 -5 0 -8 -4 -7 -8 2 -5 -24 -73
-57 -151 l-60 -142 -25 53 c-14 29 -40 89 -59 133 -19 44 -45 103 -57 130 -12
28 -47 109 -78 180 -31 72 -61 138 -66 147 -6 10 -10 25 -10 33 0 8 -4 15 -10
15 -5 0 -10 8 -10 18 0 10 -4 22 -8 27 -5 6 -16 28 -24 50 -9 22 -28 67 -43
100 -15 33 -37 85 -50 115 -13 30 -40 91 -60 134 -19 43 -35 85 -35 92 0 8 -4
14 -10 14 -5 0 -10 7 -10 15 0 8 -5 23 -10 33 -6 9 -26 55 -46 102 -20 47 -43
101 -52 120 -9 19 -15 38 -14 43 1 4 -2 7 -8 7 -5 0 -10 7 -10 16 0 27 -57
119 -92 148 -63 52 -127 78 -203 82 -38 1 -89 -3 -112 -10z"/>
</g>
</svg>
